<svg xmlns="http://www.w3.org/2000/svg" viewBox="0 0 316.44 147.01"><defs><style>.cls-1{fill:#fff;}</style></defs><title>Asset 1</title><g id="Layer_2" data-name="Layer 2"><g id="Layer_1-2" data-name="Layer 1"><path d="M253.58,16a22.19,22.19,0,0,1,21,14.85l24.68,70.87a22.09,22.09,0,0,1-21,29.29H38.18a22.09,22.09,0,0,1-21-29.29L41.89,30.85A22.19,22.19,0,0,1,62.86,16H253.58m0-16H62.86A38.21,38.21,0,0,0,26.78,25.58L2.1,96.45A38.1,38.1,0,0,0,38.18,147H278.26a38.1,38.1,0,0,0,36.08-50.56L289.66,25.58A38.21,38.21,0,0,0,253.58,0Z"/><path d="M253.58,24A14.18,14.18,0,0,1,267,33.48l24.68,70.87A13.8,13.8,0,0,1,289.86,117a14.07,14.07,0,0,1-11.6,6H38.18a14.08,14.08,0,0,1-11.6-6,13.8,13.8,0,0,1-1.81-12.69L49.45,33.48A14.18,14.18,0,0,1,62.86,24H253.58"/><path class="cls-1" d="M63.15,106A1.92,1.92,0,0,0,65,107.83h42.09a1.85,1.85,0,0,0,1.85-1.85V95.41a1.84,1.84,0,0,0-1.85-1.84H86v-.2L110.88,43V41.77A1.91,1.91,0,0,0,109,39.93H67.81A1.9,1.9,0,0,0,66,41.77V52.34a1.91,1.91,0,0,0,1.84,1.85H89v.19L63.15,104.24Z"/><path class="cls-1" d="M113.83,106a1.91,1.91,0,0,0,1.84,1.85h11.64a1.91,1.91,0,0,0,1.84-1.85V41.77a1.9,1.9,0,0,0-1.84-1.84H115.67a1.9,1.9,0,0,0-1.84,1.84Z"/><path class="cls-1" d="M134.38,106a1.85,1.85,0,0,0,1.84,1.85h11.55a1.91,1.91,0,0,0,1.84-1.85V81.25h6.69L169.2,107a1.8,1.8,0,0,0,1.55.88h12.91A1.84,1.84,0,0,0,185.3,105L172,80.38c8.43-3.4,14.35-10.58,14.35-19.5a21.09,21.09,0,0,0-21.14-21h-29a1.84,1.84,0,0,0-1.84,1.84Zm15.23-37V53.8H164a7.44,7.44,0,0,1,7.38,7.37c0,4.07-3.4,7.76-7.38,7.76Z"/><path class="cls-1" d="M187.55,74a34.87,34.87,0,1,0,34.82-35A34.61,34.61,0,0,0,187.55,74Zm15.52,0a19.35,19.35,0,1,1,19.3,19.31A19.51,19.51,0,0,1,203.07,74Z"/></g></g></svg>